<mxfile host="app.diagrams.net" modified="2023-07-17T20:49:40.538Z" agent="Mozilla/5.0 (Windows NT 10.0; Win64; x64; rv:109.0) Gecko/20100101 Firefox/115.0" version="21.6.2" etag="dexrm2-YLgNrPStBQIuR" type="github">
  <diagram name="Page-1" id="KgIsYFPoBrowuQsJDeLN">
    <mxGraphModel>
      <root>
        <mxCell id="0" />
        <mxCell id="1" parent="0" />
      </root>
    </mxGraphModel>
  </diagram>
</mxfile>
